<svg width="265" height="470" viewBox="0 0 265 470" fill="none" xmlns="http://www.w3.org/2000/svg">
<path fill-rule="evenodd" clip-rule="evenodd" d="M130.297 0.796547C130.693 0.24181 131.516 0.236926 131.918 0.78692L238.11 145.91C238.771 146.813 237.659 148.048 236.708 147.459C229.712 143.129 215.583 134.832 198.366 127.116V238.539L257.319 279.554C259.915 281.359 261.213 282.262 262.14 283.446C262.894 284.409 263.465 285.502 263.825 286.671C264.267 288.109 264.267 289.69 264.267 292.852V469.998L198.366 340.981V360.755C198.366 364.621 195.232 367.755 191.366 367.755H141.905L155.46 408.578C155.89 409.873 154.926 411.209 153.562 411.209H112.425C111.061 411.209 110.097 409.873 110.527 408.578L124.082 367.755H73.5644C69.6984 367.755 66.5644 364.621 66.5644 360.755V339.61L0.66333 469.999V290.827C0.66333 287.684 0.66333 286.112 1.10106 284.681C1.45713 283.518 2.02256 282.429 2.76956 281.468C3.68786 280.288 4.97367 279.384 7.54523 277.575L7.54545 277.575L66.5644 236.078V126.399C49.3768 134.21 35.3071 142.768 28.2956 147.282C27.3505 147.89 26.2064 146.655 26.8593 145.74L130.297 0.796547Z" fill="url(#paint0_linear)"/>
<defs>
<linearGradient id="paint0_linear" x1="59.9742" y1="23.8585" x2="344.785" y2="278.193" gradientUnits="userSpaceOnUse">
<stop stop-color="#00BFC7"/>
<stop offset="1" stop-color="#2748F1" stop-opacity="0.9"/>
</linearGradient>
</defs>
</svg>
